<?xml version="1.0" encoding="UTF-8"?>
<svg xmlns="http://www.w3.org/2000/svg" xmlns:xlink="http://www.w3.org/1999/xlink" width="100px" height="100px" viewBox="0 0 100 100" version="1.1">
<g id="surface1">
<path style=" stroke:none;fill-rule:nonzero;fill:rgb(0%,0%,0%);fill-opacity:1;" d="M 45.507812 0.214844 C 39.550781 0.78125 32.890625 2.675781 27.734375 5.273438 C 22.402344 7.96875 16.816406 12.226562 12.988281 16.523438 C 5.488281 24.960938 1.230469 34.707031 0.195312 45.800781 C -0.605469 54.511719 1.269531 64.335938 5.273438 72.265625 C 7.96875 77.597656 12.226562 83.183594 16.523438 87.011719 C 24.960938 94.511719 34.707031 98.769531 45.800781 99.804688 C 54.511719 100.605469 64.335938 98.730469 72.265625 94.726562 C 77.597656 92.03125 83.183594 87.773438 87.011719 83.476562 C 94.511719 75.039062 98.769531 65.292969 99.804688 54.199219 C 100.605469 45.488281 98.730469 35.664062 94.726562 27.734375 C 92.03125 22.402344 87.773438 16.816406 83.476562 12.988281 C 75.039062 5.488281 65.292969 1.230469 54.199219 0.195312 C 51.757812 -0.0195312 47.949219 -0.0195312 45.507812 0.214844 Z M 52.382812 21.25 C 53.535156 21.757812 54.804688 23.027344 55.332031 24.199219 C 55.917969 25.449219 55.917969 27.675781 55.332031 28.925781 C 54.804688 30.097656 53.535156 31.367188 52.363281 31.894531 C 51.113281 32.480469 48.886719 32.480469 47.636719 31.894531 C 45.117188 30.742188 43.691406 27.871094 44.335938 25.214844 C 45.175781 21.699219 49.0625 19.785156 52.382812 21.25 Z M 52.382812 38.828125 C 53.515625 39.316406 54.804688 40.605469 55.351562 41.777344 C 55.761719 42.675781 55.761719 42.714844 55.761719 58.789062 C 55.761719 74.863281 55.761719 74.902344 55.351562 75.800781 C 54.804688 76.972656 53.535156 78.242188 52.363281 78.769531 C 51.113281 79.355469 48.886719 79.355469 47.636719 78.769531 C 46.464844 78.242188 45.195312 76.972656 44.648438 75.800781 C 44.238281 74.902344 44.238281 74.785156 44.179688 59.375 C 44.140625 48.496094 44.179688 43.554688 44.335938 42.832031 C 45.097656 39.316406 49.042969 37.34375 52.382812 38.828125 Z M 52.382812 38.828125 "/>
</g>
</svg>
