<?xml version="1.0" encoding="UTF-8"?>
<svg xmlns="http://www.w3.org/2000/svg" xmlns:xlink="http://www.w3.org/1999/xlink" width="100px" height="100px" viewBox="0 0 100 100" version="1.1">
<g id="surface1">
<path style=" stroke:none;fill-rule:nonzero;fill:rgb(0%,0%,0%);fill-opacity:1;" d="M 46.035156 5.566406 C 38.925781 6.914062 32.578125 11.992188 29.863281 18.535156 C 28.632812 21.484375 28.261719 23.398438 28.242188 26.855469 C 28.242188 28.769531 28.320312 30.429688 28.476562 31.152344 C 30.449219 40.175781 36.875 46.621094 45.800781 48.554688 C 47.910156 49.003906 52.089844 49.003906 54.199219 48.554688 C 63.652344 46.523438 70.429688 39.238281 71.699219 29.746094 C 73.105469 19.160156 65.996094 8.671875 55.566406 5.9375 C 53.085938 5.292969 48.457031 5.117188 46.035156 5.566406 Z M 46.035156 5.566406 "/>
<path style=" stroke:none;fill-rule:nonzero;fill:rgb(0%,0%,0%);fill-opacity:1;" d="M 45.3125 55.976562 C 33.476562 56.992188 24.746094 59.316406 15.292969 63.945312 C 11.933594 65.605469 10.859375 66.484375 10 68.320312 L 9.472656 69.433594 L 9.472656 88.183594 L 10.078125 89.453125 C 10.839844 91.074219 12.050781 92.285156 13.671875 93.046875 L 14.941406 93.652344 L 85.058594 93.652344 L 86.367188 93.027344 C 87.96875 92.265625 89.140625 91.09375 89.921875 89.453125 L 90.527344 88.183594 L 90.527344 69.433594 L 90 68.320312 C 89.199219 66.582031 88.066406 65.625 85.195312 64.179688 C 76.914062 60.039062 68.378906 57.5 58.691406 56.328125 C 56.289062 56.054688 47.285156 55.800781 45.3125 55.976562 Z M 45.3125 55.976562 "/>
</g>
</svg>
