<?xml version="1.0" encoding="UTF-8"?>
<svg xmlns="http://www.w3.org/2000/svg" xmlns:xlink="http://www.w3.org/1999/xlink" width="100px" height="100px" viewBox="0 0 100 100" version="1.1">
<g id="surface1">
<path style=" stroke:none;fill-rule:nonzero;fill:rgb(0%,0%,0%);fill-opacity:1;" d="M 51.289062 0.390625 C 46.542969 1.386719 42.304688 4.667969 39.84375 9.238281 C 38.203125 12.265625 37.578125 14.941406 37.617188 18.75 C 37.65625 22.734375 38.613281 25.9375 40.703125 29.082031 C 41.738281 30.644531 66.308594 57.34375 67.226562 57.890625 C 68.046875 58.398438 69.453125 58.398438 70.273438 57.890625 C 71.191406 57.34375 95.742188 30.664062 96.777344 29.101562 C 97.96875 27.304688 98.769531 25.488281 99.375 23.242188 C 99.765625 21.71875 99.863281 20.917969 99.882812 18.652344 C 99.902344 15.859375 99.726562 14.609375 98.984375 12.304688 C 95.742188 2.167969 84.609375 -2.851562 75.488281 1.71875 C 73.671875 2.617188 72.167969 3.75 70.449219 5.546875 L 68.730469 7.304688 L 67.226562 5.722656 C 65.449219 3.847656 64.414062 3.027344 62.675781 2.070312 C 59.160156 0.136719 55.214844 -0.429688 51.289062 0.390625 Z M 51.289062 0.390625 "/>
<path style=" stroke:none;fill-rule:nonzero;fill:rgb(0%,0%,0%);fill-opacity:1;" d="M 1.269531 50.175781 C 1.054688 50.273438 0.703125 50.546875 0.488281 50.78125 C 0.0976562 51.210938 0.0976562 51.523438 0.0390625 70.585938 C -0.0195312 88.222656 0 90 0.292969 90.546875 C 0.46875 90.898438 0.839844 91.269531 1.09375 91.386719 C 1.40625 91.523438 3.320312 91.601562 6.601562 91.601562 C 11.953125 91.601562 12.1875 91.5625 12.695312 90.625 C 13.164062 89.726562 22.265625 57.207031 22.265625 56.40625 C 22.246094 55.273438 21.699219 54.101562 20.78125 53.339844 C 19.589844 52.363281 15.820312 51.289062 11.035156 50.566406 C 8.261719 50.15625 1.894531 49.882812 1.269531 50.175781 Z M 1.269531 50.175781 "/>
<path style=" stroke:none;fill-rule:nonzero;fill:rgb(0%,0%,0%);fill-opacity:1;" d="M 28.417969 58.144531 C 28.359375 58.457031 26.386719 65.46875 24.042969 73.769531 L 19.785156 88.847656 L 22.734375 90.15625 C 37.167969 96.503906 48.300781 100 54.121094 100 C 60.136719 100 72.285156 95.898438 84.765625 89.648438 C 93.046875 85.507812 99.042969 81.542969 99.804688 79.707031 C 100.136719 78.886719 99.921875 77.65625 99.199219 76.40625 C 98.222656 74.6875 96.40625 73.613281 93.652344 73.105469 C 90.253906 72.5 86.484375 73.4375 77.441406 77.1875 C 64.570312 82.519531 61.835938 83.398438 58.105469 83.398438 C 54.960938 83.398438 51.328125 82.480469 47.089844 80.585938 C 45.058594 79.6875 40.761719 77.34375 40.898438 77.207031 C 40.917969 77.167969 42.265625 77.363281 43.867188 77.617188 C 50.371094 78.691406 53.261719 78.964844 57.519531 78.984375 C 61.230469 79.003906 61.757812 78.964844 62.988281 78.574219 C 64.6875 78.046875 65.859375 77.089844 66.328125 75.878906 C 66.816406 74.609375 66.640625 72.402344 65.957031 71.25 C 64.160156 68.183594 60 66.40625 51.621094 65.136719 L 48.144531 64.609375 L 45.800781 63.28125 C 41.757812 61.015625 40.957031 60.605469 39.101562 59.863281 C 36.816406 58.964844 34.238281 58.300781 31.445312 57.910156 C 28.554688 57.519531 28.535156 57.519531 28.417969 58.144531 Z M 28.417969 58.144531 "/>
</g>
</svg>
