<?xml version="1.0" encoding="UTF-8"?>
<svg xmlns="http://www.w3.org/2000/svg" xmlns:xlink="http://www.w3.org/1999/xlink" width="100px" height="100px" viewBox="0 0 100 100" version="1.1">
<g id="surface1">
<path style=" stroke:none;fill-rule:nonzero;fill:rgb(0%,0%,0%);fill-opacity:1;" d="M 47.089844 4.296875 C 43.085938 4.726562 39.355469 5.800781 35.859375 7.539062 C 32.558594 9.199219 30.46875 10.722656 27.636719 13.574219 C 23.730469 17.460938 21.523438 21.015625 19.902344 25.996094 L 19.121094 28.4375 L 17.617188 28.691406 C 13.613281 29.375 9.667969 31.386719 6.5625 34.375 C 1.054688 39.667969 -1.191406 47.421875 0.664062 54.726562 C 2.578125 62.265625 8.730469 68.261719 16.40625 70.117188 C 18.867188 70.703125 18.808594 70.703125 19.082031 69.335938 C 19.628906 66.464844 21.953125 63.339844 24.550781 61.953125 C 25.898438 61.230469 27.96875 60.664062 29.921875 60.46875 L 31.210938 60.332031 L 31.289062 54.433594 C 31.367188 48.652344 31.367188 48.496094 31.894531 46.972656 C 32.617188 44.785156 33.671875 43.085938 35.273438 41.503906 C 36.894531 39.902344 38.554688 38.867188 40.722656 38.125 L 42.285156 37.597656 L 57.714844 37.597656 L 59.277344 38.125 C 61.464844 38.867188 63.125 39.902344 64.726562 41.523438 C 66.347656 43.125 67.382812 44.804688 68.105469 46.972656 C 68.632812 48.496094 68.632812 48.652344 68.710938 54.433594 L 68.789062 60.332031 L 70.078125 60.46875 C 73.4375 60.800781 75.917969 61.855469 77.851562 63.769531 C 79.21875 65.117188 80.058594 66.523438 80.683594 68.457031 C 80.917969 69.199219 81.132812 69.84375 81.171875 69.882812 C 81.289062 70.039062 84.492188 68.789062 86.210938 67.910156 C 97.226562 62.285156 102.558594 49.472656 98.730469 37.8125 C 97.5 34.042969 95.683594 31.035156 92.851562 28.125 C 89.082031 24.238281 84.53125 21.777344 79.394531 20.800781 C 78.378906 20.605469 77.753906 20.390625 77.636719 20.175781 C 73.320312 13.007812 67.402344 8.242188 59.765625 5.722656 C 56.054688 4.511719 50.800781 3.90625 47.089844 4.296875 Z M 47.089844 4.296875 "/>
<path style=" stroke:none;fill-rule:nonzero;fill:rgb(0%,0%,0%);fill-opacity:1;" d="M 43.046875 46.152344 C 41.601562 46.71875 40.351562 47.96875 39.882812 49.394531 C 39.707031 49.863281 39.648438 52.851562 39.648438 59.394531 L 39.648438 68.730469 L 34.394531 68.789062 C 29.414062 68.847656 29.101562 68.867188 28.574219 69.257812 C 27.246094 70.253906 26.757812 71.933594 27.441406 73.242188 C 27.832031 74.003906 47.675781 94.921875 48.476562 95.390625 C 49.296875 95.898438 50.703125 95.898438 51.523438 95.390625 C 52.324219 94.921875 72.167969 74.003906 72.558594 73.242188 C 73.242188 71.933594 72.753906 70.253906 71.425781 69.257812 C 70.898438 68.867188 70.585938 68.847656 65.625 68.789062 L 60.371094 68.730469 L 60.3125 59.121094 C 60.253906 48.398438 60.292969 48.847656 58.847656 47.402344 C 57.460938 45.996094 57.480469 45.996094 50.195312 45.957031 C 45.507812 45.9375 43.476562 45.996094 43.046875 46.152344 Z M 43.046875 46.152344 "/>
</g>
</svg>
