<?xml version="1.0" encoding="UTF-8"?>
<svg xmlns="http://www.w3.org/2000/svg" xmlns:xlink="http://www.w3.org/1999/xlink" width="100px" height="100px" viewBox="0 0 100 100" version="1.1">
<g id="surface1">
<path style=" stroke:none;fill-rule:nonzero;fill:rgb(0%,0%,0%);fill-opacity:1;" d="M 24.21875 4.296875 C 12.265625 5.957031 3.144531 14.375 0.585938 26.09375 C -2.285156 39.355469 5.800781 55.976562 24.707031 75.566406 C 31.171875 82.265625 44.414062 93.828125 47.070312 95.097656 C 47.988281 95.527344 48.398438 95.605469 50 95.605469 C 52.441406 95.605469 53.183594 95.253906 56.738281 92.382812 C 69.238281 82.246094 79.785156 71.640625 87.304688 61.621094 C 94.726562 51.71875 98.945312 42.597656 99.824219 34.589844 C 100.9375 24.335938 96.054688 14.101562 87.402344 8.554688 C 77.578125 2.246094 65.019531 2.714844 55.722656 9.746094 C 54.238281 10.878906 51.582031 13.476562 50.527344 14.84375 L 50 15.527344 L 49.492188 14.84375 C 48.300781 13.28125 44.6875 9.921875 42.96875 8.789062 C 39.746094 6.679688 36.113281 5.195312 32.636719 4.570312 C 30.605469 4.199219 25.976562 4.0625 24.21875 4.296875 Z M 24.21875 4.296875 "/>
</g>
</svg>
