<?xml version="1.0" encoding="UTF-8"?>
<svg xmlns="http://www.w3.org/2000/svg" xmlns:xlink="http://www.w3.org/1999/xlink" width="100px" height="100px" viewBox="0 0 100 100" version="1.1">
<g id="surface1">
<path style=" stroke:none;fill-rule:nonzero;fill:rgb(0%,0%,0%);fill-opacity:1;" d="M 22.949219 4.375 C 19.785156 4.980469 17.558594 5.742188 14.960938 7.070312 C 7.265625 10.976562 1.71875 18.496094 0.3125 26.933594 C -0.078125 29.296875 -0.0976562 33.886719 0.292969 36.328125 C 2.851562 52.34375 18.476562 72.539062 44.726562 93.710938 C 46.992188 95.546875 48.964844 96.152344 51.191406 95.742188 C 52.949219 95.410156 53.691406 94.980469 56.933594 92.363281 C 66.816406 84.414062 76.347656 75.214844 83.28125 66.914062 C 92.167969 56.289062 97.539062 46.601562 99.433594 37.851562 C 100.039062 35.039062 100.175781 29.902344 99.707031 27.109375 C 97.8125 15.546875 88.59375 6.328125 76.992188 4.394531 C 74.296875 3.945312 68.867188 4.082031 66.40625 4.648438 C 62.988281 5.449219 59.628906 6.894531 56.738281 8.828125 C 55.234375 9.824219 51.582031 13.242188 50.507812 14.648438 L 50 15.332031 L 49.492188 14.648438 C 48.398438 13.203125 44.746094 9.804688 43.085938 8.710938 C 40.175781 6.796875 37.109375 5.46875 33.59375 4.648438 C 31.425781 4.140625 25.019531 3.984375 22.949219 4.375 Z M 31.894531 10.957031 C 38.339844 12.285156 43.671875 16.445312 46.738281 22.578125 C 47.636719 24.355469 48.339844 24.84375 50 24.84375 C 51.660156 24.84375 52.363281 24.355469 53.261719 22.578125 C 55.957031 17.1875 60.449219 13.261719 65.859375 11.523438 C 70.234375 10.136719 75.253906 10.175781 79.355469 11.660156 C 86.582031 14.257812 91.855469 20.351562 93.261719 27.792969 C 93.671875 30 93.632812 33.710938 93.183594 36.113281 C 91.191406 46.367188 83.007812 58.789062 69.042969 72.714844 C 65.175781 76.582031 61.015625 80.429688 56.972656 83.847656 C 53.613281 86.71875 50.195312 89.453125 50 89.453125 C 49.765625 89.453125 45.097656 85.664062 41.542969 82.578125 C 26.425781 69.492188 15.273438 56.328125 10.058594 45.449219 C 5.722656 36.425781 5.253906 28.847656 8.652344 22.167969 C 10.644531 18.222656 14.101562 14.746094 17.96875 12.792969 C 22.382812 10.566406 27.011719 9.960938 31.894531 10.957031 Z M 31.894531 10.957031 "/>
</g>
</svg>
