<?xml version="1.0" encoding="UTF-8"?>
<svg xmlns="http://www.w3.org/2000/svg" xmlns:xlink="http://www.w3.org/1999/xlink" width="100px" height="100px" viewBox="0 0 100 100" version="1.1">
<g id="surface1">
<path style=" stroke:none;fill-rule:nonzero;fill:rgb(0%,0%,0%);fill-opacity:1;" d="M 47.714844 0.292969 C 45.175781 0.996094 45.878906 0.351562 23.378906 22.8125 C 11.699219 34.492188 1.875 44.433594 1.5625 44.902344 C -0.859375 48.515625 -0.371094 53.359375 2.714844 56.464844 C 4.511719 58.242188 6.796875 59.179688 9.414062 59.179688 L 10.742188 59.179688 L 10.742188 74.804688 C 10.742188 85.371094 10.820312 90.742188 10.957031 91.445312 C 11.699219 95 14.570312 98.222656 18.125 99.453125 C 19.414062 99.902344 19.511719 99.902344 28.945312 99.902344 C 38.242188 99.902344 38.457031 99.902344 38.984375 99.492188 C 39.277344 99.277344 39.707031 98.847656 39.921875 98.554688 C 40.332031 98.027344 40.332031 97.773438 40.429688 84.980469 L 40.527344 71.933594 L 41.113281 70.976562 C 41.855469 69.785156 43.359375 68.828125 44.804688 68.652344 C 45.351562 68.574219 48.085938 68.554688 50.878906 68.59375 L 55.957031 68.652344 L 56.992188 69.21875 C 57.96875 69.765625 58.59375 70.410156 59.199219 71.484375 C 59.414062 71.894531 59.492188 74.296875 59.570312 85 C 59.667969 97.773438 59.667969 98.027344 60.078125 98.554688 C 60.292969 98.847656 60.722656 99.277344 61.015625 99.492188 C 61.542969 99.902344 61.757812 99.902344 71.054688 99.902344 C 80.488281 99.902344 80.585938 99.902344 81.875 99.453125 C 85.429688 98.222656 88.300781 95 89.042969 91.445312 C 89.179688 90.742188 89.257812 85.371094 89.257812 74.804688 L 89.257812 59.179688 L 90.585938 59.179688 C 95.273438 59.179688 99.0625 55.996094 99.84375 51.40625 C 100.136719 49.609375 99.84375 47.695312 99.003906 45.898438 C 98.4375 44.726562 96.738281 42.96875 77.167969 23.378906 C 65.507812 11.699219 55.546875 1.875 55.039062 1.542969 C 54.53125 1.210938 53.652344 0.761719 53.085938 0.546875 C 51.71875 0.0195312 49.101562 -0.0976562 47.714844 0.292969 Z M 47.714844 0.292969 "/>
</g>
</svg>
