<?xml version="1.0" encoding="UTF-8"?>
<svg xmlns="http://www.w3.org/2000/svg" xmlns:xlink="http://www.w3.org/1999/xlink" width="100px" height="100px" viewBox="0 0 100 100" version="1.1">
<g id="surface1">
<path style=" stroke:none;fill-rule:nonzero;fill:rgb(0%,0%,0%);fill-opacity:1;" d="M 46.09375 0.703125 C 44.667969 1.367188 44.101562 1.914062 23.476562 22.519531 C 11.835938 34.140625 2.03125 44.101562 1.660156 44.648438 C 0.175781 46.855469 -0.253906 50.214844 0.585938 52.753906 C 1.855469 56.523438 4.863281 58.75 9.179688 59.101562 L 10.722656 59.238281 L 10.78125 75.175781 C 10.839844 90.820312 10.859375 91.132812 11.25 92.1875 C 12.675781 95.9375 14.902344 98.183594 18.339844 99.355469 C 19.609375 99.785156 19.804688 99.785156 29.101562 99.804688 C 38.222656 99.804688 38.59375 99.785156 39.21875 99.414062 C 39.570312 99.199219 40.019531 98.75 40.234375 98.398438 C 40.605469 97.773438 40.625 97.382812 40.625 85.351562 C 40.625 76.894531 40.703125 72.695312 40.839844 72.167969 C 41.171875 70.996094 42.089844 69.804688 43.125 69.199219 L 44.042969 68.652344 L 56.386719 68.652344 L 57.34375 69.238281 C 58.417969 69.902344 59.433594 71.40625 59.648438 72.597656 C 59.707031 73.007812 59.765625 78.808594 59.765625 85.507812 C 59.765625 98.691406 59.726562 98.183594 60.839844 99.21875 L 61.367188 99.707031 L 70.761719 99.765625 C 77.050781 99.804688 80.507812 99.746094 81.191406 99.609375 C 83.886719 99.042969 87.011719 96.660156 88.242188 94.238281 C 89.609375 91.503906 89.53125 92.617188 89.609375 75.078125 L 89.667969 59.21875 L 91.269531 59.082031 C 95.136719 58.75 97.773438 57.03125 99.335938 53.808594 C 100 52.480469 100 52.421875 100 49.804688 C 100 47.167969 100 47.148438 99.296875 45.703125 C 98.632812 44.277344 98.105469 43.730469 77.1875 22.8125 C 56.269531 1.894531 55.722656 1.367188 54.296875 0.703125 C 52.851562 0 52.832031 0 50.195312 0 C 47.558594 0 47.539062 0 46.09375 0.703125 Z M 51.503906 6.054688 C 52.207031 6.328125 93.457031 47.539062 93.847656 48.359375 C 94.53125 49.804688 94.023438 51.640625 92.714844 52.5 C 91.953125 53.007812 91.777344 53.027344 88.671875 53.125 C 85.15625 53.222656 84.746094 53.339844 84.042969 54.433594 C 83.710938 54.921875 83.691406 56.171875 83.59375 72.558594 C 83.496094 88.632812 83.476562 90.195312 83.164062 90.839844 C 82.636719 91.953125 81.875 92.753906 80.78125 93.320312 L 79.785156 93.847656 L 72.8125 93.90625 L 65.839844 93.984375 L 65.78125 82.675781 C 65.722656 71.621094 65.703125 71.367188 65.273438 70.117188 C 64.121094 66.738281 61.875 64.355469 58.59375 63.105469 C 57.34375 62.617188 57.226562 62.617188 50.742188 62.539062 C 45.214844 62.480469 43.964844 62.519531 42.929688 62.773438 C 38.886719 63.808594 35.703125 67.070312 34.84375 71.074219 C 34.628906 72.089844 34.570312 74.648438 34.570312 83.164062 L 34.570312 93.984375 L 27.597656 93.90625 L 20.605469 93.847656 L 19.53125 93.261719 C 18.222656 92.539062 17.285156 91.347656 17.011719 90.039062 C 16.875 89.355469 16.796875 83.613281 16.796875 72.109375 C 16.796875 55.664062 16.777344 55.15625 16.40625 54.550781 C 15.683594 53.359375 15.292969 53.242188 11.71875 53.125 C 8.613281 53.027344 8.4375 53.007812 7.675781 52.5 C 6.367188 51.640625 5.859375 49.804688 6.542969 48.359375 C 6.914062 47.597656 48.164062 6.328125 48.828125 6.074219 C 49.492188 5.820312 50.820312 5.820312 51.503906 6.054688 Z M 51.503906 6.054688 "/>
</g>
</svg>
