<?xml version="1.0" standalone="no"?>
<!DOCTYPE svg PUBLIC "-//W3C//DTD SVG 20010904//EN"
 "http://www.w3.org/TR/2001/REC-SVG-20010904/DTD/svg10.dtd">
<svg version="1.0" xmlns="http://www.w3.org/2000/svg"
 width="512.000000pt" height="512.000000pt" viewBox="0 0 512.000000 512.000000"
 preserveAspectRatio="xMidYMid meet">

<g transform="translate(0.000000,512.000000) scale(0.100000,-0.100000)"
fill="#000000" stroke="none">
<path d="M1820 4668 c-25 -14 -58 -44 -75 -67 -29 -42 -30 -45 -33 -186 l-3
-144 -457 -3 -457 -3 -47 -28 c-84 -49 -124 -150 -98 -245 15 -56 80 -123 136
-140 31 -9 204 -12 684 -12 l643 0 -7 -67 c-18 -184 -96 -494 -181 -726 -49
-134 -208 -467 -223 -467 -13 0 -100 151 -141 246 -21 49 -50 128 -65 176 -14
48 -38 101 -52 118 -88 104 -260 94 -339 -19 -27 -38 -30 -51 -30 -114 0 -161
155 -506 327 -725 29 -37 46 -68 42 -75 -46 -76 -276 -322 -435 -463 -131
-116 -153 -150 -153 -235 1 -138 134 -237 269 -199 30 8 75 37 137 90 106 89
367 353 447 452 32 40 58 64 65 60 6 -4 50 -33 98 -65 48 -32 117 -71 153 -88
56 -27 75 -31 126 -27 149 11 239 171 171 304 -25 49 -48 68 -162 135 -47 28
-99 62 -117 77 l-32 27 50 85 c244 417 434 989 476 1432 l6 68 235 0 c269 0
298 5 358 65 98 98 77 261 -44 332 l-47 28 -457 3 -457 3 -3 143 c-3 137 -4
144 -30 182 -44 62 -90 88 -167 92 -55 3 -74 -1 -111 -20z"/>
<path d="M3160 2754 c-184 -48 -346 -188 -418 -361 -30 -72 -392 -1699 -392
-1763 0 -96 68 -179 164 -201 57 -13 109 -3 163 30 65 41 77 73 157 436 42
187 78 350 81 363 l5 22 387 -2 387 -3 76 -340 c42 -187 79 -352 83 -368 11
-42 73 -104 122 -123 127 -48 267 32 289 165 9 56 -363 1721 -403 1808 -80
170 -233 296 -413 338 -79 18 -216 18 -288 -1z m228 -430 c30 -15 60 -39 72
-59 12 -20 43 -135 79 -294 l58 -261 -289 0 c-200 0 -288 3 -288 11 0 28 112
504 124 528 20 38 59 71 103 86 55 20 83 18 141 -11z"/>
</g>
</svg>
