<?xml version="1.0" encoding="UTF-8"?>
<svg xmlns="http://www.w3.org/2000/svg" xmlns:xlink="http://www.w3.org/1999/xlink" width="100px" height="100px" viewBox="0 0 100 100" version="1.1">
<g id="surface1">
<path style=" stroke:none;fill-rule:nonzero;fill:rgb(0%,0%,0%);fill-opacity:1;" d="M 28.4375 15.234375 C 26.347656 15.878906 24.824219 18.203125 25.058594 20.410156 C 25.234375 22.148438 26.25 23.632812 27.832031 24.472656 L 28.613281 24.902344 L 96.386719 24.902344 L 97.167969 24.472656 C 98.964844 23.515625 99.882812 21.992188 99.902344 20.019531 C 99.902344 18.027344 98.964844 16.445312 97.207031 15.488281 C 96.621094 15.15625 94.6875 15.136719 62.792969 15.097656 C 44.199219 15.078125 28.75 15.136719 28.4375 15.234375 Z M 28.4375 15.234375 "/>
<path style=" stroke:none;fill-rule:nonzero;fill:rgb(0%,0%,0%);fill-opacity:1;" d="M 3.90625 45.136719 C 2.148438 45.488281 0.351562 47.34375 0.078125 49.121094 C -0.117188 50.429688 0.136719 51.640625 0.839844 52.675781 C 1.660156 53.886719 2.773438 54.648438 4.101562 54.882812 C 4.824219 55.019531 20.566406 55.058594 50.683594 55.039062 C 91.894531 54.980469 96.25 54.941406 96.875 54.667969 C 97.890625 54.199219 98.769531 53.398438 99.375 52.363281 C 99.824219 51.601562 99.902344 51.25 99.902344 50 C 99.902344 48.75 99.824219 48.398438 99.375 47.636719 C 98.769531 46.601562 97.890625 45.800781 96.875 45.332031 C 96.25 45.039062 91.914062 45.019531 50.488281 45 C 24.609375 44.980469 4.394531 45.039062 3.90625 45.136719 Z M 3.90625 45.136719 "/>
<path style=" stroke:none;fill-rule:nonzero;fill:rgb(0%,0%,0%);fill-opacity:1;" d="M 48.417969 75.273438 C 44.082031 76.816406 43.847656 82.65625 48.046875 84.550781 C 48.90625 84.941406 49.199219 84.960938 72.382812 84.960938 C 98.496094 84.960938 96.914062 85.039062 98.398438 83.613281 C 99.511719 82.519531 99.902344 81.582031 99.902344 79.980469 C 99.882812 78.964844 99.785156 78.398438 99.472656 77.8125 C 98.867188 76.679688 97.441406 75.488281 96.386719 75.214844 C 95.058594 74.882812 49.375 74.921875 48.417969 75.273438 Z M 48.417969 75.273438 "/>
</g>
</svg>
