<?xml version="1.0" encoding="UTF-8"?>
<svg xmlns="http://www.w3.org/2000/svg" xmlns:xlink="http://www.w3.org/1999/xlink" width="100px" height="100px" viewBox="0 0 100 100" version="1.1">
<g id="surface1">
<path style=" stroke:none;fill-rule:nonzero;fill:rgb(0%,0%,0%);fill-opacity:1;" d="M 46.289062 0.136719 C 38.886719 0.839844 33.378906 2.402344 27.148438 5.566406 C 19.765625 9.335938 13.144531 15.273438 8.300781 22.460938 C 6.269531 25.507812 3.769531 30.644531 2.558594 34.277344 C 1.601562 37.207031 0.820312 40.546875 0.351562 43.847656 C 0.0195312 46.152344 0.0195312 53.847656 0.351562 56.152344 C 1.171875 61.914062 2.695312 66.953125 5.078125 71.777344 C 7.753906 77.246094 10.390625 80.917969 14.726562 85.273438 C 19.042969 89.570312 22.773438 92.246094 28.027344 94.824219 C 31.699219 96.621094 34.0625 97.5 37.792969 98.4375 C 47.558594 100.898438 57.363281 100.429688 66.894531 97.050781 C 69.804688 96.015625 74.84375 93.496094 77.441406 91.757812 C 83.28125 87.871094 88.632812 82.382812 92.460938 76.367188 C 93.867188 74.160156 96.132812 69.472656 97.050781 66.875 C 101.640625 53.945312 100.839844 40.078125 94.804688 27.949219 C 92.382812 23.066406 89.667969 19.21875 85.859375 15.292969 C 81.640625 10.917969 77.5 7.910156 71.972656 5.175781 C 66.191406 2.324219 60.800781 0.78125 54.394531 0.195312 C 52.402344 0.0195312 47.890625 -0.0195312 46.289062 0.136719 Z M 52.226562 24.609375 C 52.617188 24.882812 53.183594 25.449219 53.476562 25.859375 L 54.003906 26.621094 L 54.199219 45.800781 L 73.378906 45.996094 L 74.140625 46.523438 C 74.550781 46.816406 75.117188 47.382812 75.390625 47.792969 C 75.800781 48.398438 75.878906 48.730469 75.878906 50 C 75.878906 51.269531 75.800781 51.601562 75.390625 52.207031 C 75.117188 52.617188 74.550781 53.183594 74.140625 53.476562 L 73.378906 54.003906 L 54.199219 54.199219 L 54.003906 73.378906 L 53.476562 74.140625 C 53.183594 74.550781 52.617188 75.117188 52.207031 75.390625 C 51.601562 75.800781 51.269531 75.878906 50 75.878906 C 48.730469 75.878906 48.398438 75.800781 47.792969 75.390625 C 47.382812 75.117188 46.816406 74.550781 46.523438 74.140625 L 45.996094 73.378906 L 45.800781 54.199219 L 26.621094 54.003906 L 25.859375 53.476562 C 24.648438 52.617188 24.140625 51.71875 24.0625 50.214844 C 23.984375 48.613281 24.511719 47.460938 25.761719 46.582031 L 26.601562 45.996094 L 36.191406 45.898438 L 45.800781 45.800781 L 45.898438 36.191406 L 45.996094 26.601562 L 46.582031 25.761719 C 47.460938 24.511719 48.613281 23.984375 50.214844 24.0625 C 51.191406 24.121094 51.679688 24.257812 52.226562 24.609375 Z M 52.226562 24.609375 "/>
</g>
</svg>
