<?xml version="1.0" encoding="UTF-8"?>
<svg xmlns="http://www.w3.org/2000/svg" xmlns:xlink="http://www.w3.org/1999/xlink" width="100px" height="100px" viewBox="0 0 100 100" version="1.1">
<g id="surface1">
<path style=" stroke:none;fill-rule:nonzero;fill:rgb(0%,0%,0%);fill-opacity:1;" d="M 62.128906 11.328125 C 57.363281 12.929688 53.261719 14.375 53.007812 14.53125 C 52.167969 15.097656 51.5625 15.917969 51.269531 16.875 C 51.015625 17.714844 50.976562 21.464844 50.976562 43.59375 C 50.976562 57.753906 50.9375 69.335938 50.878906 69.335938 C 50.820312 69.335938 50.15625 69.023438 49.414062 68.652344 C 44.238281 66.054688 37.207031 66.035156 31.738281 68.632812 C 26.835938 70.957031 24.023438 74.804688 24.023438 79.082031 C 24.042969 82.148438 24.902344 84.101562 27.34375 86.542969 C 30.703125 89.921875 35.097656 91.601562 40.625 91.601562 C 45.800781 91.601562 50.273438 90.019531 53.476562 87.03125 C 55.039062 85.566406 55.957031 84.277344 56.679688 82.578125 L 57.128906 81.542969 L 57.324219 39.589844 L 65.546875 36.835938 C 70.058594 35.3125 74.003906 33.925781 74.277344 33.730469 C 74.570312 33.535156 75.039062 33.027344 75.351562 32.578125 L 75.878906 31.757812 L 75.878906 10.996094 L 75.351562 10.234375 C 74.472656 9.003906 73.59375 8.515625 72.089844 8.457031 C 70.878906 8.417969 70.234375 8.59375 62.128906 11.328125 Z M 62.128906 11.328125 "/>
</g>
</svg>
