<?xml version="1.0" encoding="UTF-8"?>
<svg xmlns="http://www.w3.org/2000/svg" xmlns:xlink="http://www.w3.org/1999/xlink" width="100px" height="100px" viewBox="0 0 100 100" version="1.1">
<g id="surface1">
<path style=" stroke:none;fill-rule:nonzero;fill:rgb(0%,0%,0%);fill-opacity:1;" d="M 48.4375 0.3125 C 48.066406 0.46875 47.5 0.839844 47.207031 1.132812 C 46.132812 2.148438 45.996094 2.597656 45.898438 5.742188 L 45.800781 8.652344 L 44.003906 9.003906 C 40.566406 9.707031 36.835938 11.289062 33.59375 13.4375 C 31.308594 14.960938 27.382812 18.90625 25.800781 21.269531 C 23.730469 24.394531 22.246094 27.871094 21.425781 31.542969 C 21.09375 33.105469 21.035156 34.335938 20.898438 42.675781 C 20.742188 53.027344 20.644531 54.101562 19.433594 57.734375 C 17.949219 62.226562 15.722656 65.722656 12.050781 69.394531 C 8.847656 72.558594 8.496094 73.242188 8.496094 76.074219 C 8.496094 77.8125 8.554688 78.144531 9.023438 79.121094 C 10.058594 81.210938 12.109375 82.753906 14.433594 83.203125 C 15.9375 83.476562 84.101562 83.476562 85.664062 83.183594 C 87.890625 82.773438 89.941406 81.210938 90.976562 79.121094 C 91.445312 78.144531 91.503906 77.8125 91.503906 76.074219 C 91.503906 73.261719 91.113281 72.519531 88.125 69.570312 C 85.585938 67.070312 84.453125 65.644531 83.085938 63.339844 C 81.367188 60.46875 80.214844 57.324219 79.589844 53.90625 C 79.296875 52.402344 79.21875 50.3125 79.101562 42.675781 C 78.984375 34.316406 78.925781 33.105469 78.574219 31.542969 C 77.265625 25.722656 74.785156 21.25 70.527344 16.972656 C 66.308594 12.773438 61.484375 10.117188 55.996094 9.003906 L 54.199219 8.652344 L 54.101562 5.742188 C 54.003906 2.597656 53.867188 2.148438 52.792969 1.132812 C 51.660156 0.0390625 49.84375 -0.292969 48.4375 0.3125 Z M 48.4375 0.3125 "/>
<path style=" stroke:none;fill-rule:nonzero;fill:rgb(0%,0%,0%);fill-opacity:1;" d="M 20.898438 3.378906 C 19.589844 3.769531 15.449219 8.457031 12.65625 12.65625 C 7.402344 20.625 4.394531 30.3125 4.238281 39.707031 C 4.199219 42.207031 4.21875 42.304688 4.746094 43.222656 C 6.210938 45.703125 9.589844 46.035156 11.425781 43.886719 C 12.246094 42.929688 12.5 42.128906 12.5 40.410156 C 12.5 34.667969 14.257812 27.421875 16.992188 21.914062 C 19.042969 17.753906 21.269531 14.570312 24.433594 11.191406 C 26.152344 9.375 26.445312 8.789062 26.445312 7.324219 C 26.445312 4.335938 23.828125 2.480469 20.898438 3.378906 Z M 20.898438 3.378906 "/>
<path style=" stroke:none;fill-rule:nonzero;fill:rgb(0%,0%,0%);fill-opacity:1;" d="M 76.269531 3.359375 C 74.53125 3.964844 73.300781 5.878906 73.496094 7.636719 C 73.652344 8.945312 73.984375 9.492188 75.820312 11.464844 C 82.34375 18.496094 86.425781 27.617188 87.285156 37.109375 C 87.402344 38.339844 87.5 39.882812 87.5 40.527344 C 87.5 42.148438 87.792969 43.066406 88.59375 43.945312 C 90.449219 45.996094 93.828125 45.664062 95.175781 43.320312 C 95.859375 42.128906 95.9375 41.308594 95.703125 37.910156 C 94.84375 25.664062 90.390625 15.195312 82.167969 6.015625 C 79.785156 3.359375 78.242188 2.675781 76.269531 3.359375 Z M 76.269531 3.359375 "/>
<path style=" stroke:none;fill-rule:nonzero;fill:rgb(0%,0%,0%);fill-opacity:1;" d="M 34.765625 87.792969 C 34.765625 88.4375 35.976562 91.347656 36.796875 92.65625 C 40.15625 98.007812 46.679688 100.898438 52.773438 99.726562 C 57.050781 98.90625 60.625 96.523438 63.046875 92.871094 C 63.90625 91.582031 65.214844 88.574219 65.234375 87.832031 C 65.234375 87.519531 64.375 87.5 50 87.5 C 36.71875 87.5 34.765625 87.539062 34.765625 87.792969 Z M 34.765625 87.792969 "/>
</g>
</svg>
