<?xml version="1.0" encoding="UTF-8"?>
<svg xmlns="http://www.w3.org/2000/svg" xmlns:xlink="http://www.w3.org/1999/xlink" width="100px" height="100px" viewBox="0 0 100 100" version="1.1">
<g id="surface1">
<path style=" stroke:none;fill-rule:nonzero;fill:rgb(0%,0%,0%);fill-opacity:1;" d="M 47.832031 2.441406 C 46.542969 2.851562 45.136719 3.847656 44.375 4.882812 C 44.023438 5.371094 41.269531 10.761719 38.242188 16.894531 C 35.234375 23.007812 32.597656 28.261719 32.382812 28.574219 C 32.167969 28.867188 31.738281 29.238281 31.445312 29.394531 C 31.113281 29.570312 25.507812 30.46875 18.203125 31.523438 C 9.960938 32.734375 5.175781 33.515625 4.511719 33.769531 C 0.683594 35.214844 -1.054688 39.84375 0.820312 43.554688 C 1.386719 44.667969 2.519531 45.820312 10.644531 53.769531 C 15.683594 58.691406 20 63.007812 20.214844 63.339844 C 20.46875 63.75 20.585938 64.238281 20.566406 64.921875 C 20.546875 65.46875 19.609375 71.308594 18.476562 77.890625 C 17.34375 84.492188 16.40625 90.292969 16.40625 90.800781 C 16.40625 95.585938 21.445312 99.082031 25.898438 97.421875 C 26.5625 97.167969 32.011719 94.375 38.007812 91.210938 C 48.476562 85.683594 48.964844 85.449219 50 85.449219 C 51.035156 85.449219 51.503906 85.683594 61.992188 91.210938 C 68.007812 94.375 73.417969 97.167969 74.003906 97.402344 C 78.457031 99.160156 83.59375 95.605469 83.59375 90.761719 C 83.59375 90.273438 82.617188 84.21875 81.445312 77.324219 C 79.570312 66.40625 79.316406 64.707031 79.492188 64.023438 C 79.746094 63.105469 79.746094 63.105469 90.566406 52.539062 C 97.636719 45.664062 98.691406 44.550781 99.21875 43.496094 C 101.015625 39.84375 99.375 35.410156 95.644531 33.808594 C 94.980469 33.515625 91.035156 32.871094 81.914062 31.542969 C 74.589844 30.488281 68.886719 29.570312 68.554688 29.394531 C 68.242188 29.238281 67.832031 28.867188 67.617188 28.574219 C 67.402344 28.261719 64.804688 23.066406 61.816406 16.992188 C 58.828125 10.917969 56.132812 5.585938 55.839844 5.15625 C 54.570312 3.300781 52.695312 2.304688 50.292969 2.207031 C 49.296875 2.167969 48.398438 2.265625 47.832031 2.441406 Z M 47.832031 2.441406 "/>
</g>
</svg>
