<?xml version="1.0" encoding="UTF-8"?>
<svg xmlns="http://www.w3.org/2000/svg" xmlns:xlink="http://www.w3.org/1999/xlink" width="100px" height="100px" viewBox="0 0 100 100" version="1.1">
<g id="surface1">
<path style=" stroke:none;fill-rule:nonzero;fill:rgb(0%,0%,0%);fill-opacity:1;" d="M 37.890625 0.800781 C 28.261719 1.289062 18.925781 5.527344 11.835938 12.617188 C 6.074219 18.378906 2.148438 25.78125 0.703125 33.613281 C -2.578125 51.386719 6.113281 68.90625 22.265625 77.128906 C 31.132812 81.640625 41.679688 82.675781 51.347656 79.960938 C 54.804688 78.984375 59.726562 76.777344 62.226562 75.039062 L 63.378906 74.257812 L 75.195312 86.015625 C 85.859375 96.660156 87.128906 97.851562 88.28125 98.417969 C 94.238281 101.289062 100.996094 96.289062 99.824219 89.882812 C 99.355469 87.34375 99.375 87.363281 86.542969 74.53125 L 74.667969 62.65625 L 76.269531 59.511719 C 78.964844 54.199219 80.195312 49.765625 80.683594 43.847656 C 81.542969 33.105469 77.675781 21.992188 70.234375 13.90625 C 66.464844 9.785156 62.34375 6.777344 57.324219 4.453125 C 54.316406 3.066406 53.203125 2.65625 50.410156 1.953125 C 46.230469 0.898438 42.578125 0.566406 37.890625 0.800781 Z M 44.824219 14.160156 C 55.664062 15.9375 64.453125 24.160156 66.953125 34.863281 C 69.0625 43.867188 66.464844 53.28125 60.058594 59.941406 C 54.785156 65.410156 47.910156 68.359375 40.390625 68.359375 C 33.144531 68.359375 26.308594 65.507812 21.113281 60.332031 C 17.285156 56.484375 14.804688 51.875 13.632812 46.425781 C 13.027344 43.574219 13.027344 38.632812 13.652344 35.761719 C 15.253906 28.261719 19.433594 22.167969 25.78125 18.066406 C 29.023438 15.957031 32.5 14.707031 36.914062 14.003906 C 38.203125 13.789062 43.222656 13.886719 44.824219 14.160156 Z M 44.824219 14.160156 "/>
</g>
</svg>
