<?xml version="1.0" encoding="UTF-8"?>
<svg xmlns="http://www.w3.org/2000/svg" xmlns:xlink="http://www.w3.org/1999/xlink" width="100px" height="100px" viewBox="0 0 100 100" version="1.1">
<g id="surface1">
<path style=" stroke:none;fill-rule:nonzero;fill:rgb(0%,0%,0%);fill-opacity:1;" d="M 41.210938 0.3125 C 39.882812 0.800781 38.730469 1.679688 37.96875 2.8125 C 37.382812 3.691406 37.167969 4.453125 36.210938 8.59375 C 35.625 11.230469 35.117188 13.378906 35.097656 13.378906 C 35.078125 13.398438 34.042969 13.886719 32.8125 14.492188 C 31.582031 15.097656 29.570312 16.25 28.339844 17.070312 C 27.128906 17.890625 26.035156 18.554688 25.898438 18.554688 C 25.78125 18.554688 23.710938 17.929688 21.328125 17.1875 C 16.40625 15.644531 15.449219 15.527344 13.535156 16.230469 C 11.699219 16.933594 11.035156 17.792969 6.933594 24.902344 C 4.902344 28.457031 3.066406 31.835938 2.871094 32.421875 C 2.382812 33.867188 2.5 35.566406 3.222656 37.011719 C 3.632812 37.890625 4.433594 38.730469 7.34375 41.445312 L 10.957031 44.785156 L 10.820312 46.074219 C 10.625 47.734375 10.625 52.265625 10.820312 53.925781 L 10.957031 55.214844 L 7.34375 58.554688 C 4.433594 61.269531 3.632812 62.109375 3.222656 62.988281 C 2.5 64.433594 2.382812 66.132812 2.871094 67.578125 C 3.066406 68.164062 4.902344 71.542969 6.933594 75.097656 C 11.035156 82.207031 11.699219 83.066406 13.535156 83.769531 C 15.449219 84.472656 16.40625 84.355469 21.347656 82.8125 C 23.75 82.050781 25.800781 81.445312 25.917969 81.445312 C 26.035156 81.445312 27.128906 82.109375 28.339844 82.929688 C 29.570312 83.75 31.582031 84.902344 32.8125 85.507812 C 34.042969 86.113281 35.078125 86.601562 35.097656 86.621094 C 35.117188 86.621094 35.625 88.789062 36.210938 91.40625 C 37.207031 95.761719 37.363281 96.289062 38.046875 97.265625 C 38.828125 98.398438 40.3125 99.453125 41.660156 99.824219 C 42.109375 99.941406 45.488281 100 50.644531 99.960938 L 58.886719 99.902344 L 60.019531 99.335938 C 61.308594 98.671875 62.382812 97.597656 62.890625 96.40625 C 63.105469 95.976562 63.710938 93.574219 64.277344 91.113281 L 65.292969 86.621094 L 67.363281 85.644531 C 68.496094 85.097656 70.527344 83.945312 71.855469 83.066406 C 73.183594 82.167969 74.375 81.445312 74.492188 81.445312 C 74.628906 81.445312 76.679688 82.050781 79.082031 82.8125 C 83.945312 84.355469 84.941406 84.472656 86.796875 83.769531 C 88.75 83.046875 89.296875 82.34375 93.457031 75.136719 C 95.546875 71.503906 97.402344 68.144531 97.558594 67.65625 C 97.96875 66.425781 97.929688 64.863281 97.441406 63.535156 C 96.992188 62.324219 96.035156 61.269531 91.5625 57.128906 L 89.472656 55.175781 L 89.667969 52.578125 C 89.824219 50.761719 89.824219 49.238281 89.667969 47.402344 L 89.472656 44.824219 L 91.5625 42.871094 C 96.054688 38.710938 96.992188 37.675781 97.441406 36.464844 C 97.929688 35.136719 97.96875 33.574219 97.558594 32.34375 C 97.402344 31.855469 95.546875 28.496094 93.457031 24.863281 C 89.296875 17.65625 88.75 16.953125 86.796875 16.230469 C 84.941406 15.527344 83.945312 15.644531 79.082031 17.1875 C 76.679688 17.929688 74.628906 18.554688 74.511719 18.554688 C 74.394531 18.554688 73.203125 17.832031 71.875 16.933594 C 70.527344 16.054688 68.496094 14.882812 67.363281 14.355469 L 65.292969 13.378906 L 64.277344 8.886719 C 63.710938 6.40625 63.105469 4.023438 62.890625 3.59375 C 62.382812 2.402344 61.25 1.25 60 0.644531 L 58.886719 0.0976562 L 50.488281 0.0585938 C 43.222656 0.0195312 41.972656 0.0585938 41.210938 0.3125 Z M 52.480469 29.316406 C 55.78125 29.6875 58.945312 30.839844 61.894531 32.753906 C 63.378906 33.730469 66.542969 36.914062 67.558594 38.476562 C 72.910156 46.699219 71.992188 57.207031 65.332031 64.238281 C 59.082031 70.839844 49.570312 72.675781 41.484375 68.867188 C 39.238281 67.792969 37.65625 66.71875 35.917969 65.097656 C 34.023438 63.300781 32.773438 61.582031 31.542969 59.082031 C 27.695312 51.269531 29.101562 42.089844 35.097656 35.722656 C 36.894531 33.828125 38.613281 32.578125 41.113281 31.347656 C 44.902344 29.492188 48.398438 28.847656 52.480469 29.316406 Z M 52.480469 29.316406 "/>
</g>
</svg>
