<?xml version="1.0" encoding="UTF-8"?>
<svg xmlns="http://www.w3.org/2000/svg" xmlns:xlink="http://www.w3.org/1999/xlink" width="100px" height="100px" viewBox="0 0 100 100" version="1.1">
<g id="surface1">
<path style=" stroke:none;fill-rule:nonzero;fill:rgb(0%,0%,0%);fill-opacity:1;" d="M 40.917969 0.390625 C 39.394531 0.898438 38.066406 1.894531 37.207031 3.203125 C 36.503906 4.257812 36.230469 5.15625 34.882812 11.132812 L 34.375 13.378906 L 32.148438 14.511719 C 30.917969 15.117188 29.082031 16.191406 28.046875 16.875 L 26.171875 18.125 L 22.226562 16.875 C 17.65625 15.410156 16.289062 15.214844 14.550781 15.722656 C 13.183594 16.113281 11.5625 17.148438 10.898438 18.027344 C 9.824219 19.453125 2.949219 31.621094 2.65625 32.597656 C 2.246094 33.984375 2.265625 35.253906 2.695312 36.660156 C 3.242188 38.378906 3.789062 39.082031 7.246094 42.285156 L 10.390625 45.214844 L 10.390625 54.785156 L 7.246094 57.714844 C 5.527344 59.316406 3.886719 60.957031 3.613281 61.328125 C 2.96875 62.207031 2.34375 64.238281 2.34375 65.410156 C 2.34375 65.917969 2.480469 66.816406 2.65625 67.402344 C 3.105469 68.886719 10.390625 81.445312 11.40625 82.460938 C 11.855469 82.910156 12.773438 83.535156 13.476562 83.867188 C 14.628906 84.414062 14.921875 84.472656 16.503906 84.453125 C 18.105469 84.433594 18.613281 84.316406 22.226562 83.144531 L 26.191406 81.855469 L 28.046875 83.105469 C 29.0625 83.789062 30.878906 84.84375 32.089844 85.46875 C 33.28125 86.074219 34.296875 86.601562 34.335938 86.621094 C 34.375 86.660156 34.824219 88.554688 35.351562 90.859375 C 35.859375 93.144531 36.386719 95.273438 36.523438 95.605469 C 36.914062 96.621094 38.203125 98.144531 39.199219 98.789062 C 41.074219 99.980469 41.464844 100.019531 50.527344 99.960938 L 58.691406 99.902344 L 60 99.257812 C 61.503906 98.515625 63.085938 96.933594 63.554688 95.664062 C 63.730469 95.195312 64.296875 92.988281 64.804688 90.742188 L 65.722656 86.660156 L 67.890625 85.566406 C 69.082031 84.960938 70.9375 83.867188 72.011719 83.164062 L 73.964844 81.855469 L 77.949219 83.144531 C 81.601562 84.335938 82.070312 84.433594 83.691406 84.453125 C 85.3125 84.472656 85.566406 84.414062 86.757812 83.828125 C 87.578125 83.417969 88.378906 82.851562 88.90625 82.246094 C 89.824219 81.210938 97.070312 68.75 97.480469 67.480469 C 97.871094 66.289062 97.773438 64.160156 97.285156 62.871094 C 96.699219 61.308594 96.171875 60.703125 92.792969 57.617188 L 89.765625 54.863281 L 89.765625 45.136719 L 92.773438 42.382812 C 96.015625 39.414062 96.875 38.398438 97.402344 36.835938 C 97.8125 35.605469 97.8125 33.4375 97.382812 32.265625 C 96.875 30.859375 89.804688 18.789062 88.90625 17.753906 C 88.378906 17.148438 87.578125 16.582031 86.757812 16.171875 C 85.566406 15.585938 85.3125 15.527344 83.691406 15.546875 C 82.070312 15.546875 81.621094 15.644531 77.949219 16.835938 L 73.945312 18.144531 L 72.011719 16.835938 C 70.9375 16.132812 69.082031 15.058594 67.890625 14.433594 L 65.722656 13.339844 L 64.824219 9.277344 C 64.316406 7.070312 63.75 4.84375 63.574219 4.375 C 63.085938 3.066406 61.523438 1.484375 60 0.742188 L 58.691406 0.0976562 L 50.390625 0.0585938 C 42.597656 0.0195312 42.011719 0.0390625 40.917969 0.390625 Z M 57.617188 6.542969 C 57.753906 6.71875 58.378906 9.082031 58.984375 11.816406 C 59.667969 14.84375 60.273438 17.03125 60.527344 17.441406 C 60.957031 18.144531 61.328125 18.378906 63.671875 19.355469 C 65.683594 20.195312 67.792969 21.445312 70.117188 23.144531 C 71.386719 24.0625 72.324219 24.609375 72.8125 24.707031 C 73.398438 24.804688 74.511719 24.511719 78.515625 23.242188 C 81.25 22.382812 83.632812 21.679688 83.808594 21.679688 C 83.984375 21.679688 84.21875 21.796875 84.335938 21.914062 C 84.550781 22.207031 90.800781 33.007812 91.289062 33.925781 C 91.464844 34.257812 91.542969 34.6875 91.484375 34.84375 C 91.425781 35.019531 89.648438 36.738281 87.558594 38.691406 C 85.46875 40.644531 83.613281 42.519531 83.457031 42.890625 C 83.183594 43.457031 83.164062 43.808594 83.359375 45.644531 C 83.652344 48.320312 83.652344 51.660156 83.378906 54.316406 C 83.164062 56.230469 83.183594 56.445312 83.515625 57.148438 C 83.75 57.617188 85.292969 59.199219 87.558594 61.328125 C 89.589844 63.203125 91.328125 64.902344 91.425781 65.078125 C 91.5625 65.3125 91.523438 65.625 91.289062 66.054688 C 90.78125 67.050781 84.550781 77.792969 84.335938 78.066406 C 84.21875 78.203125 83.984375 78.320312 83.808594 78.320312 C 83.632812 78.320312 81.269531 77.617188 78.554688 76.757812 C 75.839844 75.898438 73.4375 75.195312 73.222656 75.195312 C 72.539062 75.195312 71.621094 75.703125 69.726562 77.128906 C 68.515625 78.046875 66.875 79.023438 65.039062 79.902344 C 60.878906 81.933594 60.878906 81.933594 60.46875 82.597656 C 60.273438 82.949219 59.609375 85.46875 58.984375 88.203125 C 58.359375 90.9375 57.753906 93.300781 57.617188 93.457031 C 57.402344 93.710938 56.289062 93.75 50.097656 93.75 C 43.417969 93.75 42.8125 93.730469 42.539062 93.398438 C 42.363281 93.222656 41.738281 90.820312 41.113281 88.085938 C 40.507812 85.351562 39.921875 82.96875 39.84375 82.8125 C 39.492188 82.148438 38.652344 81.601562 36.757812 80.78125 C 34.414062 79.746094 32.089844 78.378906 29.785156 76.679688 C 28.789062 75.9375 27.851562 75.390625 27.421875 75.292969 C 26.816406 75.195312 25.761719 75.449219 21.542969 76.777344 C 17.597656 78.027344 16.308594 78.359375 16.054688 78.203125 C 15.878906 78.085938 14.101562 75.195312 12.128906 71.777344 C 9.082031 66.523438 8.554688 65.507812 8.710938 65.136719 C 8.808594 64.882812 10.566406 63.144531 12.636719 61.25 C 17.050781 57.1875 17.148438 57.03125 16.816406 54.609375 C 16.542969 52.65625 16.542969 47.34375 16.816406 45.390625 C 17.148438 42.96875 17.050781 42.8125 12.636719 38.75 C 10.566406 36.855469 8.808594 35.117188 8.710938 34.863281 C 8.554688 34.472656 9.0625 33.496094 12.128906 28.203125 C 14.101562 24.804688 15.859375 21.914062 16.054688 21.796875 C 16.289062 21.660156 17.636719 21.992188 21.523438 23.222656 C 25.761719 24.550781 26.816406 24.804688 27.402344 24.707031 C 27.851562 24.609375 28.808594 24.0625 29.902344 23.242188 C 32.265625 21.484375 34.316406 20.292969 36.757812 19.21875 C 39.84375 17.890625 39.726562 18.066406 41.113281 11.933594 C 41.757812 9.101562 42.382812 6.660156 42.539062 6.523438 C 42.753906 6.308594 44.199219 6.25 50.078125 6.25 C 56.386719 6.25 57.402344 6.289062 57.617188 6.542969 Z M 57.617188 6.542969 "/>
<path style=" stroke:none;fill-rule:nonzero;fill:rgb(0%,0%,0%);fill-opacity:1;" d="M 48.4375 29.21875 C 48.164062 29.257812 47.304688 29.394531 46.523438 29.511719 C 44.648438 29.785156 42.128906 30.644531 40.253906 31.660156 C 35.15625 34.394531 31.503906 39.003906 29.921875 44.6875 C 29.453125 46.40625 29.394531 46.894531 29.394531 50 C 29.394531 53.105469 29.453125 53.59375 29.921875 55.273438 C 32.304688 63.828125 39.179688 69.6875 48.007812 70.703125 C 50.410156 70.996094 53.300781 70.722656 55.78125 70 C 62.871094 67.949219 68.339844 62.324219 70.253906 55.117188 C 70.703125 53.4375 70.761719 52.851562 70.761719 50 C 70.761719 47.148438 70.703125 46.5625 70.253906 44.882812 C 68.339844 37.65625 62.871094 32.050781 55.800781 30 C 53.476562 29.316406 50.136719 28.984375 48.4375 29.21875 Z M 53.847656 35.957031 C 58.085938 37.03125 61.972656 40.527344 63.632812 44.726562 C 64.394531 46.679688 64.53125 47.519531 64.53125 50 C 64.53125 52.480469 64.394531 53.320312 63.632812 55.273438 C 62.871094 57.207031 61.875 58.671875 60.175781 60.351562 C 57.304688 63.203125 54.179688 64.492188 50.097656 64.511719 C 44.414062 64.53125 39.472656 61.445312 37.011719 56.347656 C 35.976562 54.199219 35.546875 52.34375 35.546875 50 C 35.546875 43.828125 39.316406 38.4375 45.078125 36.328125 C 47.910156 35.292969 50.820312 35.175781 53.847656 35.957031 Z M 53.847656 35.957031 "/>
</g>
</svg>
