<?xml version="1.0" encoding="UTF-8"?>
<svg xmlns="http://www.w3.org/2000/svg" xmlns:xlink="http://www.w3.org/1999/xlink" width="100px" height="100px" viewBox="0 0 100 100" version="1.1">
<g id="surface1">
<path style=" stroke:none;fill-rule:nonzero;fill:rgb(0%,0%,0%);fill-opacity:1;" d="M 68.320312 0.390625 C 67.929688 0.605469 67.402344 1.09375 67.148438 1.503906 C 66.699219 2.246094 66.699219 2.285156 66.640625 9.414062 L 66.582031 16.5625 L 64.296875 16.699219 C 57.871094 17.050781 52.539062 18.417969 47.265625 21.113281 C 34.824219 27.441406 26.601562 39.492188 25.195312 53.496094 C 24.902344 56.542969 24.941406 63.925781 25.273438 64.707031 C 26.035156 66.5625 28.554688 67.1875 30.058594 65.898438 C 30.371094 65.644531 30.996094 64.746094 31.464844 63.90625 C 36.40625 54.84375 44.707031 48.691406 54.980469 46.484375 C 56.5625 46.132812 57.832031 46.035156 61.757812 45.957031 L 66.582031 45.859375 L 66.640625 53.046875 C 66.699219 60.214844 66.699219 60.253906 67.167969 60.996094 C 68.046875 62.402344 70.058594 62.910156 71.386719 62.03125 C 72.285156 61.445312 99.453125 33.105469 99.726562 32.480469 C 100.078125 31.679688 100.078125 30.820312 99.726562 30.019531 C 99.453125 29.375 72.285156 1.054688 71.367188 0.46875 C 70.605469 -0.0390625 69.179688 -0.078125 68.320312 0.390625 Z M 68.320312 0.390625 "/>
<path style=" stroke:none;fill-rule:nonzero;fill:rgb(0%,0%,0%);fill-opacity:1;" d="M 10.546875 16.816406 C 6.015625 17.480469 1.953125 21.054688 0.546875 25.585938 L 0.0976562 27.050781 L 0.0976562 89.746094 L 0.527344 91.113281 C 1.132812 93.027344 2.226562 94.804688 3.710938 96.289062 C 5.195312 97.753906 6.601562 98.632812 8.632812 99.375 L 10.058594 99.902344 L 49.355469 99.960938 C 93.300781 100.019531 90.136719 100.117188 93.144531 98.59375 C 95.996094 97.167969 98.378906 94.375 99.472656 91.210938 L 99.902344 89.941406 L 99.960938 71.875 C 100 57.988281 99.960938 53.613281 99.785156 52.929688 C 99.277344 51.132812 97.207031 49.804688 95.3125 50.058594 C 94.101562 50.214844 92.871094 51.054688 92.246094 52.109375 L 91.699219 53.027344 L 91.503906 89.003906 L 90.976562 89.765625 C 90.683594 90.175781 90.117188 90.742188 89.707031 91.015625 L 88.984375 91.503906 L 10.996094 91.503906 L 10.234375 90.976562 C 9.824219 90.683594 9.257812 90.117188 8.984375 89.707031 L 8.496094 88.984375 L 8.4375 58.554688 C 8.398438 28.886719 8.398438 28.105469 8.769531 27.382812 C 9.257812 26.445312 10.058594 25.683594 10.976562 25.3125 C 11.582031 25.039062 12.832031 25 18.75 25 C 24.667969 25 25.917969 24.960938 26.523438 24.6875 C 28.066406 24.042969 29.101562 22.539062 29.101562 20.898438 C 29.101562 19.179688 28.359375 17.929688 26.855469 17.128906 C 26.09375 16.71875 25.839844 16.699219 18.945312 16.679688 C 15.019531 16.660156 11.25 16.71875 10.546875 16.816406 Z M 10.546875 16.816406 "/>
</g>
</svg>
