<?xml version="1.0" encoding="UTF-8"?>
<svg xmlns="http://www.w3.org/2000/svg" xmlns:xlink="http://www.w3.org/1999/xlink" width="100px" height="100px" viewBox="0 0 100 100" version="1.1">
<g id="surface1">
<path style=" stroke:none;fill-rule:nonzero;fill:rgb(0%,0%,0%);fill-opacity:1;" d="M 47.265625 0.3125 C 42.695312 1.289062 38.75 5.273438 37.792969 9.863281 C 35.9375 18.730469 43.769531 26.5625 52.636719 24.707031 C 57.285156 23.730469 61.230469 19.785156 62.207031 15.136719 C 64.0625 6.230469 56.171875 -1.601562 47.265625 0.3125 Z M 47.265625 0.3125 "/>
<path style=" stroke:none;fill-rule:nonzero;fill:rgb(0%,0%,0%);fill-opacity:1;" d="M 47.265625 37.8125 C 42.695312 38.789062 38.75 42.773438 37.792969 47.363281 C 35.9375 56.230469 43.769531 64.0625 52.636719 62.207031 C 57.285156 61.230469 61.230469 57.285156 62.207031 52.636719 C 64.0625 43.730469 56.171875 35.898438 47.265625 37.8125 Z M 47.265625 37.8125 "/>
<path style=" stroke:none;fill-rule:nonzero;fill:rgb(0%,0%,0%);fill-opacity:1;" d="M 47.265625 75.3125 C 42.695312 76.289062 38.75 80.273438 37.792969 84.863281 C 35.9375 93.730469 43.769531 101.5625 52.636719 99.707031 C 57.285156 98.730469 61.230469 94.785156 62.207031 90.136719 C 64.0625 81.230469 56.171875 73.398438 47.265625 75.3125 Z M 47.265625 75.3125 "/>
</g>
</svg>
