<?xml version="1.0" encoding="UTF-8"?>
<svg xmlns="http://www.w3.org/2000/svg" xmlns:xlink="http://www.w3.org/1999/xlink" width="100px" height="100px" viewBox="0 0 100 100" version="1.1">
<g id="surface1">
<path style=" stroke:none;fill-rule:nonzero;fill:rgb(0%,0%,0%);fill-opacity:1;" d="M 87.363281 11.328125 C 84.902344 11.835938 86.367188 10.488281 59.570312 37.226562 L 34.667969 62.109375 L 25.292969 52.734375 C 15.175781 42.617188 14.960938 42.441406 12.460938 41.972656 C 11.464844 41.796875 10.917969 41.796875 10.039062 41.953125 C 7.832031 42.402344 6.953125 42.988281 4.0625 45.859375 C 1.835938 48.105469 1.289062 48.769531 0.742188 49.902344 C 0.15625 51.152344 0.0976562 51.425781 0.0976562 53.125 C 0.0976562 54.746094 0.175781 55.136719 0.664062 56.25 C 1.210938 57.441406 2.167969 58.457031 16.269531 72.597656 C 27.128906 83.476562 31.582031 87.8125 32.304688 88.222656 C 33.691406 88.984375 35.585938 88.984375 37.011719 88.242188 C 37.753906 87.851562 45.449219 80.253906 68.378906 57.285156 C 97.304688 28.320312 98.789062 26.796875 99.335938 25.585938 C 99.824219 24.472656 99.902344 24.082031 99.902344 22.460938 C 99.902344 19.785156 99.375 18.730469 96.464844 15.722656 C 94.003906 13.183594 92.8125 12.226562 91.445312 11.71875 C 90.292969 11.289062 88.4375 11.113281 87.363281 11.328125 Z M 87.363281 11.328125 "/>
</g>
</svg>
